<?xml version="1.0" standalone="no"?>
<!DOCTYPE svg PUBLIC "-//W3C//DTD SVG 1.1//EN" "http://www.w3.org/Graphics/SVG/1.1/DTD/svg11.dtd" >
<svg xmlns="http://www.w3.org/2000/svg" xmlns:xlink="http://www.w3.org/1999/xlink" version="1.1">
<metadata>
Created by FontForge 20161116 at Tue Aug 18 21:13:42 1998
 By Jimmy Wärting
Copyright (c) 2002  Sharkshock Productions All rights reserved
</metadata>
<defs>
<font id="PadalomaItalic" horiz-adv-x="1105" >
  <font-face 
    font-family="Padaloma Italic"
    font-weight="400"
    font-style="italic"
    font-stretch="normal"
    units-per-em="1000"
    panose-1="0 0 0 0 0 0 0 0 0 0"
    ascent="800"
    descent="-200"
    x-height="638"
    cap-height="812"
    bbox="-50 -236 1740 1007"
    underline-thickness="50"
    underline-position="-125"
    unicode-range="U+0020-00AE"
  />
<missing-glyph horiz-adv-x="500" 
 />
    <glyph glyph-name=".notdef" horiz-adv-x="500" 
 />
    <glyph glyph-name=".null" horiz-adv-x="0" 
 />
    <glyph glyph-name="nonmarkingreturn" horiz-adv-x="500" 
 />
    <glyph glyph-name="space" unicode=" " horiz-adv-x="500" 
 />
    <glyph glyph-name="space" unicode="&#xa0;" horiz-adv-x="500" 
 />
    <glyph glyph-name="exclam" unicode="!" horiz-adv-x="479" 
d="M460 342l99 470h-295l-99 -470h295zM300 278q70 0 109 -50q39 -49 24 -118q-13 -68 -75 -119q-59 -49 -129 -49t-109 49t-24 119q15 69 74 118q61 50 130 50z" />
    <glyph glyph-name="quotedbl" unicode="&#x22;" horiz-adv-x="741" 
d="M697 739q69 0 108 -50q39 -49 24 -118q-13 -68 -75 -119q-59 -49 -128 -49q-70 0 -109 49t-24 119q15 69 74 118q61 50 130 50zM562 349l6 28q82 33 127 85q46 52 87 58q41 7 -30 -65q-72 -72 -190 -106zM348 733q70 0 109 -50q39 -49 24 -118q-15 -70 -75 -119
q-59 -49 -130 -49q-68 0 -107 49t-24 119q15 69 74 118q61 50 129 50zM214 343l6 29q80 31 127 84q45 52 86 58q43 8 -31 -65q-72 -72 -188 -106z" />
    <glyph glyph-name="numbersign" unicode="#" horiz-adv-x="1077" 
d="M734 407l-76 -104h-164l76 104h164zM794 718h-197l-126 -179h-177l-95 -132h176l-73 -104h-174l-96 -132h176l-127 -179h197l128 179h155l-128 -179h198l127 179h174l97 132h-177l75 104h172l97 132h-175l126 179h-197l-127 -179h-155z" />
    <glyph glyph-name="dollar" unicode="$" horiz-adv-x="1070" 
d="M631 0h133q144 0 219.5 42t95.5 133l18 83q8 38 7.5 66t-11 48t-31.5 34t-52 25l-335 108q-24 8 -38.5 14t-22 12t-9 12t0.5 14q3 16 19.5 26t40.5 10q57 0 47 -55l-3 -10h451l21 96q16 75 -45 114.5t-200 39.5h-133l14 67h-194l-14 -67h-130q-138 0 -216.5 -39.5
t-94.5 -114.5l-17 -80q-13 -61 17 -98q30 -35 129 -66l289 -89q24 -7 37.5 -13.5t19.5 -15t6.5 -19t-2.5 -25.5q-8 -36 -24.5 -51t-45.5 -15q-30 0 -40 13.5t-3 44.5l12 57h-454l-31 -147q-17 -75 44.5 -114.5t200.5 -39.5h130l-14 -66h194z" />
    <glyph glyph-name="percent" unicode="%" horiz-adv-x="1614" 
d="M1316 329q7 34 39 34q31 0 24 -34l-40 -187q-7 -34 -38 -34q-32 0 -25 34zM1142 0h265q45 0 77 6t53.5 19.5t34.5 35t20 53.5l54 255q12 54 -21 78t-118 24h-265q-81 0 -122.5 -24t-53.5 -78l-54 -255q-14 -63 15.5 -88.5t114.5 -25.5zM493 0h225l586 812h-224zM447 671
q7 34 39 34q31 0 24 -34l-40 -188q-7 -34 -39 -34q-31 0 -24 34zM273 342h263q46 0 78.5 6t54 19.5t34.5 35t20 52.5l54 255q11 54 -21 78t-120 24h-263q-81 0 -123.5 -24t-53.5 -78l-54 -255q-14 -63 16 -88t115 -25z" />
    <glyph glyph-name="quotesingle" unicode="'" horiz-adv-x="1614" 
d="M1316 329q7 34 39 34q31 0 24 -34l-40 -187q-7 -34 -38 -34q-32 0 -25 34zM1142 0h265q45 0 77 6t53.5 19.5t34.5 35t20 53.5l54 255q12 54 -21 78t-118 24h-265q-81 0 -122.5 -24t-53.5 -78l-54 -255q-14 -63 15.5 -88.5t114.5 -25.5zM493 0h225l586 812h-224zM447 671
q7 34 39 34q31 0 24 -34l-40 -188q-7 -34 -39 -34q-31 0 -24 34zM273 342h263q46 0 78.5 6t54 19.5t34.5 35t20 52.5l54 255q11 54 -21 78t-120 24h-263q-81 0 -123.5 -24t-53.5 -78l-54 -255q-14 -63 16 -88t115 -25z" />
    <glyph glyph-name="parenleft" unicode="(" horiz-adv-x="658" 
d="M790 838h-276q-137 0 -215 -39.5t-95 -114.5l-153 -723q-17 -75 45 -114.5t199 -39.5h276l34 162h-70q-30 0 -47.5 2.5t-26 9t-9.5 18t3 29.5l125 589q4 18 9.5 29.5t17 18t30.5 9t49 2.5h70z" />
    <glyph glyph-name="parenright" unicode=")" horiz-adv-x="658" 
d="M5 -194h276q137 0 215 40t95 115l153 723q17 75 -44 114.5t-200 39.5h-276l-35 -163h69q31 0 49 -2.5t26.5 -8.5t9.5 -17.5t-3 -29.5l-125 -590q-4 -18 -9.5 -29.5t-16.5 -17.5t-30.5 -8.5t-50.5 -2.5h-69z" />
    <glyph glyph-name="asterisk" unicode="*" horiz-adv-x="735" 
d="M338 353l127 104l83 -104l186 87l-83 104l179 39l-35 141l-178 -40l28 128h-207l-28 -128l-162 40l-93 -141l161 -39l-127 -104z" />
    <glyph glyph-name="plus" unicode="+" horiz-adv-x="1166" 
d="M806 596h-192l-49 -231h-313l-29 -133h313l-49 -232h192l49 232h314l29 133h-314z" />
    <glyph glyph-name="comma" unicode="," horiz-adv-x="407" 
d="M263 276q70 0 109 -50q39 -49 24 -118q-15 -70 -75 -119q-59 -49 -130 -49q-69 0 -108 49q-38 50 -23 119t73 118q61 50 130 50zM128 -114l6 29q82 32 128 84q45 52 85 58q43 8 -30 -65q-35 -35 -82 -62t-107 -44z" />
    <glyph glyph-name="hyphen" unicode="-" horiz-adv-x="560" 
d="M614 432h-483l-45 -213h483z" />
    <glyph glyph-name="hyphen" unicode="&#xad;" horiz-adv-x="560" 
d="M614 432h-483l-45 -213h483z" />
    <glyph glyph-name="period" unicode="." horiz-adv-x="400" 
d="M263 276q70 0 109 -50q39 -49 24 -118q-15 -70 -75 -119q-59 -49 -130 -49q-69 0 -108 49q-38 50 -23 119t73 118q61 50 130 50z" />
    <glyph glyph-name="slash" unicode="/" horiz-adv-x="787" 
d="M960 812h-235l-745 -905h244z" />
    <glyph glyph-name="zero" unicode="0" 
d="M314 -7h463q157 0 228 43q73 44 95 153l97 455q10 46 1.5 79.5t-38 54.5t-81 31t-127.5 10h-463q-141 0 -214.5 -42t-92.5 -133l-97 -455q-22 -109 28 -152q53 -44 201 -44zM618 575q7 31 23 45t46 14q58 0 44 -59l-72 -338q-6 -31 -22.5 -44.5t-46.5 -13.5t-40 13.5
t-4 44.5z" />
    <glyph glyph-name="one" unicode="1" horiz-adv-x="649" 
d="M145 0h450l173 812h-345l-200 -1l-62 -292h94z" />
    <glyph glyph-name="two" unicode="2" horiz-adv-x="1095" 
d="M31 0h1012l40 186h-384l353 201q45 25 69 58.5t35 87.5l28 132q17 75 -44.5 114.5t-199.5 39.5h-458q-137 0 -215 -39.5t-95 -114.5l-27 -130h451l10 49q5 22 23.5 36t44.5 14q29 0 38 -14t3 -43q-4 -17 -18 -33t-35 -29l-594 -339z" />
    <glyph glyph-name="three" unicode="3" horiz-adv-x="1095" 
d="M1076 168l16 78q9 43 6.5 74.5t-19.5 53t-48.5 35.5t-80.5 23q102 24 152.5 63t64.5 102l14 68q17 75 -45 114.5t-200 39.5h-458q-137 0 -215 -39.5t-95 -114.5l-20 -96h450l3 15q5 22 24 36t45 14q24 0 37 -14.5t8 -36.5q-12 -56 -95 -56h-91l-39 -184h98q76 0 64 -58
l-11 -48q-6 -31 -22 -44.5t-45 -13.5t-38.5 14t-3.5 44l11 51h-455l-30 -141q-16 -75 45 -114.5t200 -39.5h458q144 0 219.5 42t95.5 133z" />
    <glyph glyph-name="four" unicode="4" horiz-adv-x="1119" 
d="M477 347l183 222l-47 -222h-136zM539 0h451l34 161h148l40 186h-148l99 465h-672l-410 -485l-36 -166h528z" />
    <glyph glyph-name="five" unicode="5" horiz-adv-x="1131" 
d="M565 237l7 32h-455l-26 -122q-16 -75 45.5 -114.5t199.5 -39.5h460q144 0 219 42t95 133l46 218q40 187 -257 187l-263 1l11 53h560l40 185h-1014l-102 -479h455q13 21 27.5 30.5t35.5 9.5q29 0 40 -13.5t4 -44.5l-17 -78q-6 -31 -22.5 -44.5t-45.5 -13.5t-39 14t-4 44z
" />
    <glyph glyph-name="six" unicode="6" horiz-adv-x="1131" 
d="M621 514l12 53q8 37 22.5 51.5t43.5 14.5q26 0 38.5 -13.5t7.5 -35.5l-5 -23h451l23 105q16 75 -45.5 114t-199.5 39h-458q-139 0 -216 -39t-93 -114l-111 -519q-16 -75 45 -114t200 -39h458q144 0 219 41.5t94 131.5l35 161q39 187 -266 187h-129h-63t-63 -1zM673 231
q-10 -52 -67 -52q-54 0 -44 52l7 34q6 28 22 41t45 13q55 0 45 -52z" />
    <glyph glyph-name="seven" unicode="7" horiz-adv-x="862" 
d="M22 0h451l485 601l45 211h-808l-40 -185h370z" />
    <glyph glyph-name="eight" unicode="8" horiz-adv-x="1119" 
d="M638 625q7 33 23 47t45 14t39.5 -14.5t3.5 -46.5l-11 -49q-7 -32 -23 -46t-45 -14t-39 14.5t-4 45.5zM1097 168l16 78q9 43 6.5 74.5t-19.5 53t-48.5 35.5t-80.5 23q102 24 152.5 63t64.5 102l14 68q17 75 -45 114.5t-200 39.5h-446q-137 0 -215 -39.5t-95 -114.5
l-14 -68q-14 -64 20.5 -102.5t125.5 -62.5q-52 -9 -89.5 -22.5t-63.5 -35.5t-42.5 -53t-25.5 -75l-16 -78q-20 -91 38 -133t202 -42h446q144 0 219.5 42t95.5 133zM562 258q7 33 23 47t46 14q28 0 39 -14.5t4 -46.5l-11 -50q-12 -59 -68 -59q-30 0 -40 14.5t-4 44.5z" />
    <glyph glyph-name="nine" unicode="9" horiz-adv-x="1131" 
d="M683 298l-11 -53q-8 -37 -22.5 -51.5t-43.5 -14.5q-26 0 -39 13.5t-8 35.5l6 24h-451l-23 -105q-16 -75 45.5 -114.5t199.5 -39.5h458q139 0 216 39.5t93 114.5l110 518q17 75 -44 114.5t-200 39.5h-458q-144 0 -219.5 -41.5t-94.5 -132.5l-34 -160q-39 -187 265 -187
h255zM631 581q12 53 68 53q55 0 43 -53l-7 -33q-6 -29 -21.5 -42t-44.5 -13q-56 0 -45 53z" />
    <glyph glyph-name="colon" unicode=":" horiz-adv-x="466" 
d="M379 673q70 0 109 -50q39 -49 24 -119t-75 -119q-59 -49 -130 -49q-68 0 -107 49t-24 119t74 119q61 50 129 50zM295 276q70 0 109 -50q39 -49 24 -118q-15 -70 -75 -119q-59 -49 -130 -49q-68 0 -107 49t-24 119q15 69 74 118q61 50 129 50z" />
    <glyph glyph-name="semicolon" unicode=";" horiz-adv-x="466" 
d="M379 673q70 0 109 -50q39 -49 24 -119t-75 -119q-59 -49 -130 -49q-68 0 -107 49t-24 119t74 119q61 50 129 50zM295 276q70 0 109 -50q39 -49 24 -118q-15 -70 -75 -119q-59 -49 -130 -49q-68 0 -107 49t-24 119q15 69 74 118q61 50 129 50zM161 -114l6 29q81 32 127 84
q45 52 86 58q43 8 -31 -65q-72 -72 -188 -106z" />
    <glyph glyph-name="semicolon" unicode="&#x37e;" horiz-adv-x="466" 
d="M379 673q70 0 109 -50q39 -49 24 -119t-75 -119q-59 -49 -130 -49q-68 0 -107 49t-24 119t74 119q61 50 129 50zM295 276q70 0 109 -50q39 -49 24 -118q-15 -70 -75 -119q-59 -49 -130 -49q-68 0 -107 49t-24 119q15 69 74 118q61 50 129 50zM161 -114l6 29q81 32 127 84
q45 52 86 58q43 8 -31 -65q-72 -72 -188 -106z" />
    <glyph glyph-name="less" unicode="&#x3c;" horiz-adv-x="1166" 
d="M1083 458l32 147l-856 -238l-29 -137l754 -238l31 146l-514 160z" />
    <glyph glyph-name="equal" unicode="=" horiz-adv-x="1166" 
d="M1046 250h-819l-28 -133h819zM1095 480h-819l-28 -133h819z" />
    <glyph glyph-name="greater" unicode="&#x3e;" horiz-adv-x="1166" 
d="M1064 367l-754 238l-32 -147l513 -160l-581 -160l-31 -146l856 238z" />
    <glyph glyph-name="question" unicode="?" horiz-adv-x="988" 
d="M519 276q70 0 109 -50q39 -49 24 -118q-15 -70 -75 -119q-59 -49 -130 -49q-69 0 -108 49t-24 119q15 69 74 118q61 50 130 50zM1085 680q14 66 -49 101t-199 35h-346q-139 0 -215 -35t-90 -101l-19 -86h338l3 14q9 44 69 44q30 0 42 -11.5t6 -37.5q-5 -20 -13 -30.5
t-23 -20.5q-13 -8 -34.5 -18t-52.5 -24q-19 -7 -32.5 -13t-24.5 -11q-30 -14 -51.5 -27t-36 -27t-23 -30t-12.5 -35l-14 -68h445l5 26q6 28 29 48q25 20 98 53l12.5 5t16.5 7q81 33 105 54q16 15 26.5 33.5t16.5 47.5z" />
    <glyph glyph-name="A" unicode="A" horiz-adv-x="1095" 
d="M575 355l106 276l-12 -276h-94zM0 0h458l62 176h127l-11 -176h459l-27 812h-695z" />
    <glyph glyph-name="B" unicode="B" horiz-adv-x="1102" 
d="M629 627h49q37 0 48 -12.5t4 -45.5q-7 -31 -24 -44t-52 -13h-49zM536 186l31 149h49q37 0 48 -13t4 -45l-7 -33q-7 -33 -23 -45.5t-53 -12.5h-49zM52 0h719q158 0 234 47q75 46 99 162q22 104 -11 156t-126 69q103 18 155.5 61t69.5 124q11 51 3 88t-38 60t-82.5 34
t-130.5 11h-719z" />
    <glyph glyph-name="C" unicode="C" 
d="M1130 331h-451l-20 -94q-12 -59 -69 -59q-30 0 -40 14t-4 45l72 338q7 31 23 45t46 14t40.5 -13.5t3.5 -45.5l-12 -59h451l22 107q24 106 -29 151q-26 22 -79 32.5t-132 10.5h-463q-74 0 -127.5 -10.5t-91 -33.5t-60 -60t-33.5 -90l-96 -454q-20 -91 36 -133t197 -42h463
q76 0 132 10t94 31t60.5 54t32.5 80z" />
    <glyph glyph-name="D" unicode="D" 
d="M536 186l93 441h49q37 0 48 -12.5t4 -45.5l-69 -325q-7 -33 -23 -45.5t-53 -12.5h-49zM52 0h726q79 0 136.5 10.5t92.5 32.5q71 44 95 153l93 441q10 46 1.5 79.5t-37.5 54.5t-80.5 31t-127.5 10h-726z" />
    <glyph glyph-name="E" unicode="E" horiz-adv-x="1000" 
d="M52 0h880l39 185h-436l36 168h395l39 185h-395l19 89h436l40 185h-880z" />
    <glyph glyph-name="F" unicode="F" horiz-adv-x="975" 
d="M52 0h444l39 185l36 168h395l39 185h-395l19 89h436l40 185h-880z" />
    <glyph glyph-name="G" unicode="G" horiz-adv-x="1107" 
d="M670 287l-11 -50q-6 -31 -22.5 -44.5t-46.5 -13.5t-40 13.5t-4 44.5l72 338q7 31 23 45t46 14q26 0 39.5 -13t8.5 -35q-1 -2 -2 -5.5t-2 -5.5l-4 -13h452l18 82q10 46 1.5 79t-38 54t-81 30.5t-127.5 9.5h-463q-141 0 -214.5 -41t-92.5 -132l-97 -455q-11 -53 -4.5 -90
t34 -60.5t76.5 -34t123 -10.5h241h308q202 0 229 150l67 324h-513l-38 -181h62z" />
    <glyph glyph-name="H" unicode="H" 
d="M52 0h444l75 352h113l-75 -352h444l173 812h-444l-59 -275h-113l59 275h-444z" />
    <glyph glyph-name="I" unicode="I" horiz-adv-x="547" 
d="M52 0h444l173 812h-444z" />
    <glyph glyph-name="J" unicode="J" horiz-adv-x="1085" 
d="M1196 812h-443l-123 -575q-6 -31 -22.5 -44.5t-47.5 -13.5q-29 0 -39.5 13.5t-4.5 44.5l23 105h-431l-33 -153q-11 -53 -4.5 -90t34 -60.5t76.5 -34t123 -10.5h437q159 0 229 43q71 44 93 152z" />
    <glyph glyph-name="K" unicode="K" horiz-adv-x="1085" 
d="M55 0h435l79 371l79 -371h447l-89 435l252 377h-452l-213 -328l70 328h-435z" />
    <glyph glyph-name="L" unicode="L" horiz-adv-x="797" 
d="M55 0h716l39 185h-273l134 627h-443z" />
    <glyph glyph-name="M" unicode="M" horiz-adv-x="1473" 
d="M612 0h249l259 447l-95 -447h396l173 812h-563l-194 -337l-51 337h-561l-173 -812h395l95 447z" />
    <glyph glyph-name="N" unicode="N" horiz-adv-x="1121" 
d="M52 0h404l81 382l114 -382h419l173 812h-405l-72 -335l-103 335h-438z" />
    <glyph glyph-name="O" unicode="O" 
d="M618 575q7 31 23 45t46 14q58 0 44 -59l-72 -338q-6 -31 -22.5 -44.5t-46.5 -13.5t-40 13.5t-4 44.5zM314 -6h463q79 0 136.5 10.5t92.5 32.5q72 44 94 152l97 455q10 46 1.5 79t-38 54t-81 30.5t-127.5 9.5h-463q-141 0 -214.5 -41t-92.5 -132l-97 -455
q-11 -53 -4.5 -90t34 -60.5t76.5 -34t123 -10.5z" />
    <glyph glyph-name="P" unicode="P" 
d="M690 629q32 0 43 -13.5t4 -45.5l-23 -111q-8 -32 -25 -45t-50 -13h-58l49 228h60zM52 0h444l46 217h282q158 0 228 43q72 43 96 153l47 224q10 46 1.5 79.5t-37.5 54.5t-80.5 31t-127.5 10h-726z" />
    <glyph glyph-name="Q" unicode="Q" 
d="M618 575q7 31 23 45t46 14q58 0 44 -59l-72 -338q-6 -31 -22.5 -44.5t-46.5 -13.5t-40 13.5t-4 44.5zM314 -6h463q79 0 136.5 10.5t92.5 32.5q72 44 94 152l97 455q10 46 1.5 79t-38 54t-81 30.5t-127.5 9.5h-463q-141 0 -214.5 -41t-92.5 -132l-97 -455
q-11 -53 -4.5 -90t34 -60.5t76.5 -34t123 -10.5zM349 -138h348l36 173h-348z" />
    <glyph glyph-name="R" unicode="R" horiz-adv-x="1109" 
d="M629 627h49q37 0 48 -12.5t4 -45.5q-7 -31 -24 -44t-52 -13h-49zM609 0h451l44 209q22 104 -11 156t-126 69q51 9 89 23.5t65 37t43.5 53t25.5 71.5q11 51 2.5 88t-38 60t-81.5 34t-129 11h-719l-173 -812h444l71 335h49q37 0 48 -13t4 -45z" />
    <glyph glyph-name="S" unicode="S" horiz-adv-x="1099" 
d="M320 -6h457q145 0 220 41.5t95 132.5l19 90q8 38 7.5 66t-11 48t-31.5 34t-52 25l-335 108q-25 8 -39.5 14.5t-22 12.5t-8.5 12.5t1 15.5q4 18 21 29t41 11q58 0 46 -55l-2 -10h451l20 96q33 152 -245 152h-457q-278 0 -311 -152l-18 -87q-13 -61 16 -98q30 -35 130 -66
l289 -89q24 -7 37.5 -14t19.5 -16t5.5 -21.5t-4.5 -31.5q-7 -34 -23.5 -48.5t-45.5 -14.5q-55 0 -43 58l12 57h-454l-31 -147q-16 -75 45.5 -114t200.5 -39z" />
    <glyph glyph-name="T" unicode="T" horiz-adv-x="979" 
d="M267 0h441l133 627h228l40 185h-897l-40 -185h228z" />
    <glyph glyph-name="U" unicode="U" 
d="M1226 812h-444l-123 -575q-6 -31 -22.5 -44.5t-46.5 -13.5t-40 13.5t-4 44.5l123 575h-444l-133 -623q-22 -109 28 -151q26 -22 75.5 -33t124.5 -11h450q79 0 136.5 10.5t92.5 32.5q72 44 94 152z" />
    <glyph glyph-name="V" unicode="V" horiz-adv-x="1085" 
d="M244 0h599l416 812h-463l-190 -516l30 516h-463z" />
    <glyph glyph-name="W" unicode="W" horiz-adv-x="1567" 
d="M1121 812h-329l-167 -372l-4 372h-448l59 -812h455l169 344l23 -344h455l406 812h-448l-162 -372z" />
    <glyph glyph-name="X" unicode="X" horiz-adv-x="1053" 
d="M-7 0h445l152 300l25 -300h443l-83 425l248 387h-447l-129 -244l-25 244h-448l84 -387z" />
    <glyph glyph-name="Y" unicode="Y" horiz-adv-x="1077" 
d="M316 0h444l65 307l437 505h-432l-161 -195l-76 195h-433l221 -505z" />
    <glyph glyph-name="Z" unicode="Z" horiz-adv-x="885" 
d="M1014 812h-772l-40 -185h277l-400 -453l-37 -174h799l39 185h-305l402 457z" />
    <glyph glyph-name="bracketleft" unicode="[" horiz-adv-x="668" 
d="M23 -194h551l34 163h-161l150 706h161l35 163h-551z" />
    <glyph glyph-name="backslash" unicode="\" horiz-adv-x="787" 
d="M173 812l349 -905h245l-359 905h-235z" />
    <glyph glyph-name="bracketright" unicode="]" horiz-adv-x="668" 
d="M781 837h-550l-35 -162h161l-150 -706h-161l-34 -163h550z" />
    <glyph glyph-name="underscore" unicode="_" horiz-adv-x="700" 
d="M679 -98h-700l-29 -138h700z" />
    <glyph glyph-name="a" unicode="a" horiz-adv-x="840" 
d="M504 185q-5 -27 -21 -39t-42 -12q-50 0 -39 51l3 14q7 29 22 44t50 26l48 15zM557 442l-303 -88q-42 -12 -71.5 -25t-49.5 -30t-32 -39t-18 -52l-5 -26q-20 -91 28 -139t160 -48q54 0 106 11t109 34l-9 -40h319l105 494q9 40 3.5 68t-28 45.5t-63 25t-101.5 7.5h-308
q-61 0 -104.5 -7.5t-73.5 -24.5t-47 -45t-26 -69l-10 -46h321l5 21q5 27 19.5 39t40.5 12t35.5 -11t3.5 -40z" />
    <glyph glyph-name="b" unicode="b" horiz-adv-x="846" 
d="M421 168q-11 -48 36 -48q45 0 56 48l62 293q5 26 -3.5 37t-32.5 11q-46 0 -56 -48zM80 142l74 345q8 40 25 68t46.5 44.5t73 24t104.5 7.5h324q61 0 101.5 -7.5t63 -24.5t28 -44.5t-2.5 -67.5l-74 -345q-9 -40 -26 -67.5t-46.5 -44.5t-73 -24.5t-104.5 -7.5h-324
q-61 0 -101.5 7.5t-63 24t-28 44t3.5 68.5zM224 819h331l-80 -379h-331z" />
    <glyph glyph-name="c" unicode="c" horiz-adv-x="841" 
d="M833 144l27 129h-336l-22 -103q-5 -26 -18.5 -37.5t-37.5 -11.5q-46 0 -36 49l63 297q6 26 19.5 37.5t37.5 11.5q45 0 35 -49l-15 -71h336l21 98q9 40 3.5 68t-28 45.5t-63 25t-101.5 7.5h-236q-75 0 -123 -2t-70 -6q-23 -4 -40.5 -10t-32.5 -14q-56 -34 -72 -114
l-74 -350q-9 -41 -3.5 -69t27.5 -45t62.5 -24.5t101.5 -7.5h324q61 0 104.5 7.5t73.5 25t47 45t26 68.5z" />
    <glyph glyph-name="d" unicode="d" horiz-adv-x="846" 
d="M503 168q-11 -48 -56 -48q-47 0 -36 48l62 293q5 26 18.5 37t37.5 11q46 0 36 -48zM832 142l74 345q8 40 2.5 68t-27.5 44.5t-62.5 24t-101.5 7.5h-324q-61 0 -104.5 -7.5t-73 -24.5t-47 -44.5t-25.5 -67.5l-74 -345q-9 -40 -3 -67.5t28.5 -44.5t63 -24.5t101.5 -7.5h324
q61 0 104.5 7.5t72.5 24t46 44t26 68.5zM975 819h-330l-80 -379h330z" />
    <glyph glyph-name="e" unicode="e" horiz-adv-x="841" 
d="M833 144l23 108h-336l-18 -82q-5 -26 -18.5 -37.5t-37.5 -11.5q-46 0 -36 49l28 131h428l41 193q9 40 3.5 68t-28 45.5t-63 25t-101.5 7.5h-324q-61 0 -104.5 -7.5t-73 -24.5t-46.5 -45t-26 -69l-74 -350q-9 -41 -3.5 -69t27.5 -45t62.5 -24.5t101.5 -7.5h324
q61 0 104.5 7.5t73.5 25t47 45t26 68.5zM470 467q7 29 21 41.5t40 12.5q50 0 38 -54l-11 -51h-99z" />
    <glyph glyph-name="f" unicode="f" horiz-adv-x="570" 
d="M255 666l-6 -28h-85l-26 -122h85l-110 -516h331l110 516h119l26 122h-119l3 18q5 19 23.5 27t64.5 8h39l26 121h-230q-62 0 -105.5 -7.5t-73 -24.5t-46.5 -45t-26 -69z" />
    <glyph glyph-name="g" unicode="g" horiz-adv-x="846" 
d="M791 -19l140 657h-529q-111 4 -178.5 -43.5t-87.5 -138.5l-58 -274q-20 -91 27.5 -139t162.5 -48h75h55q31 0 68 1l-3 -5q-5 -20 -22.5 -27.5t-63.5 -7.5h-310l-26 -122h501q61 0 104 7.5t72.5 25t46.5 45.5t26 69zM560 445l-54 -252q-5 -26 -18 -37.5t-37 -11.5
q-26 0 -34.5 11.5t-3.5 37.5l54 252q10 49 57 49q24 0 32.5 -11.5t3.5 -37.5z" />
    <glyph glyph-name="h" unicode="h" horiz-adv-x="851" 
d="M50 0h331l95 445q5 26 18.5 37.5t37.5 11.5q46 0 36 -49l-95 -445h331l97 456q20 91 -28 138.5t-163 47.5q-111 0 -201 -40l45 210h-331z" />
    <glyph glyph-name="i" unicode="i" horiz-adv-x="434" 
d="M57 0h330l136 638h-330zM433 1007q70 0 109 -50q39 -49 24 -118q-13 -68 -75 -119q-59 -49 -129 -49t-109 49q-38 50 -23 119t73 118q61 50 130 50z" />
    <glyph glyph-name="j" unicode="j" horiz-adv-x="419" 
d="M12 -159h330l170 797h-330zM422 1007q70 0 109 -50q39 -49 24 -118q-13 -68 -75 -119q-59 -49 -129 -49q-69 0 -108 49t-24 119q15 69 74 118q61 50 129 50z" />
    <glyph glyph-name="k" unicode="k" horiz-adv-x="826" 
d="M55 0h324l63 298l37 -298h336l-86 336l205 302h-337l-136 -253l91 427h-324z" />
    <glyph glyph-name="l" unicode="l" horiz-adv-x="434" 
d="M52 0h330l173 812h-330z" />
    <glyph glyph-name="m" unicode="m" horiz-adv-x="1260" 
d="M50 0h328l95 445q5 26 18.5 37.5t37.5 11.5q46 0 36 -49l-95 -445h324l95 445q5 26 18.5 37.5t37.5 11.5q46 0 36 -49l-95 -445h328l97 456q20 91 -28 138.5t-160 47.5q-72 0 -130.5 -15.5t-116.5 -47.5q-53 63 -169 63q-55 0 -105.5 -10.5t-107.5 -33.5l9 40h-317z" />
    <glyph glyph-name="n" unicode="n" horiz-adv-x="851" 
d="M50 0h331l95 445q5 26 18.5 37.5t37.5 11.5q46 0 36 -49l-95 -445h331l97 456q20 91 -28 138.5t-163 47.5q-55 0 -105 -10.5t-107 -33.5l9 40h-321z" />
    <glyph glyph-name="o" unicode="o" horiz-adv-x="841" 
d="M473 467q6 26 19.5 37.5t37.5 11.5q45 0 35 -49l-63 -297q-5 -26 -18.5 -37.5t-37.5 -11.5q-46 0 -36 49zM144 494l-74 -350q-9 -41 -3.5 -69t27.5 -45t62.5 -24.5t101.5 -7.5h324q61 0 104.5 7.5t73.5 25t47 45t26 68.5l74 350q9 40 3.5 68t-28 45.5t-63 25t-101.5 7.5
h-324q-61 0 -104.5 -7.5t-73 -24.5t-46.5 -45t-26 -69z" />
    <glyph glyph-name="p" unicode="p" horiz-adv-x="846" 
d="M484 467q6 26 19.5 37.5t37.5 11.5q45 0 35 -49l-63 -297q-5 -26 -18.5 -37.5t-37.5 -11.5q-46 0 -36 49zM155 494l-74 -350q-9 -41 -3.5 -69t27.5 -45t62.5 -24.5t101.5 -7.5h324q61 0 104.5 7.5t73.5 25t47 45t26 68.5l74 350q9 40 3.5 68t-28 45.5t-63 25t-101.5 7.5
h-324q-61 0 -104.5 -7.5t-73 -24.5t-46.5 -45t-26 -69zM9 -193h331l82 384h-331z" />
    <glyph glyph-name="q" unicode="q" horiz-adv-x="846" 
d="M566 467q6 26 -2.5 37.5t-32.5 11.5q-47 0 -57 -49l-63 -297q-5 -26 3.5 -37.5t32.5 -11.5q46 0 56 49zM907 494l-74 -350q-9 -41 -26.5 -69t-46.5 -45t-72.5 -24.5t-104.5 -7.5h-324q-61 0 -101.5 7.5t-63 25t-28 45t3.5 68.5l74 350q9 40 26 68t47 45.5t73.5 25
t104.5 7.5h324q61 0 101.5 -7.5t62.5 -24.5t27.5 -45t-3.5 -69zM760 -193h-330l82 384h330z" />
    <glyph glyph-name="r" unicode="r" horiz-adv-x="585" 
d="M50 0h331l79 371q6 27 44 61q39 34 144 36l39 181q-120 9 -189 -51l9 40h-321z" />
    <glyph glyph-name="s" unicode="s" horiz-adv-x="841" 
d="M833 144l16 77q15 67 -18 100q-30 35 -136 63l-137 36q-29 7 -45.5 13.5t-24.5 13.5t-9 15t1 18q3 16 18.5 26t35.5 10q45 0 35 -49l-3 -16h332l9 43q9 40 3.5 68t-28 45.5t-63 25t-101.5 7.5h-317q-61 0 -104.5 -7.5t-73.5 -24.5t-47 -45t-26 -69l-13 -60
q-12 -58 13 -86q26 -29 110 -51l182 -47q73 -20 64 -63l-4 -17q-5 -26 -18.5 -37.5t-37.5 -11.5q-46 0 -36 49l11 53h-335l-16 -79q-9 -41 -3.5 -69t27.5 -45t62.5 -24.5t101.5 -7.5h324q61 0 104.5 7.5t73.5 25t47 45t26 68.5z" />
    <glyph glyph-name="t" unicode="t" horiz-adv-x="547" 
d="M209 516l-110 -516h331l110 516h94l26 122h-94l37 174h-331l-37 -174h-86l-26 -122h86z" />
    <glyph glyph-name="u" unicode="u" horiz-adv-x="851" 
d="M937 638h-332l-95 -445q-5 -26 -18.5 -37.5t-37.5 -11.5q-46 0 -36 49l95 445h-331l-97 -456q-20 -91 27.5 -139t162.5 -48q55 0 106 11t108 34l-9 -40h321z" />
    <glyph glyph-name="v" unicode="v" horiz-adv-x="804" 
d="M629 0l299 638h-333l-155 -427l28 427h-332l26 -638h467z" />
    <glyph glyph-name="w" unicode="w" horiz-adv-x="1154" 
d="M828 638h-240l-126 -279l-10 279h-316l60 -638h301l140 301l11 -301h301l332 638h-318l-128 -279z" />
    <glyph glyph-name="x" unicode="x" horiz-adv-x="833" 
d="M606 638l-107 -239l-3 239h-332l44 -302l-208 -336h346l127 269l11 -269h346l-66 336l174 302h-332z" />
    <glyph glyph-name="y" unicode="y" horiz-adv-x="889" 
d="M962 638h-331l-95 -445q-5 -26 -19 -37.5t-38 -11.5q-46 0 -36 49l95 445h-331l-97 -456q-20 -91 27.5 -139t162.5 -48q55 0 106 11t108 34l-43 -200h321z" />
    <glyph glyph-name="z" unicode="z" horiz-adv-x="690" 
d="M34 0h618l28 131h-256l323 392l25 115h-579l-28 -131h217l-323 -390z" />
    <glyph glyph-name="braceleft" unicode="{" horiz-adv-x="700" 
d="M743 582l29 139h-55q-48 0 -83.5 -1t-62 -4t-47 -7t-38.5 -10q-21 -7 -37.5 -16.5t-28.5 -24.5t-21 -37t-16 -55l-26 -126q-14 -62 -51 -87.5t-113 -25.5q-4 0 -11.5 0.5t-12.5 0.5l-30 -138q5 0 13 0.5t12 0.5q76 0 102.5 -25t13.5 -88l-27 -126q-14 -62 -3 -91
q10 -27 49 -41q14 -6 32.5 -10t45 -7t61.5 -4t83 -1h55l30 139q-5 0 -16 -0.5t-16 -0.5q-29 0 -47.5 3t-28 11.5t-10.5 23t4 38.5l25 118q12 63 -14 91q-13 14 -38 23.5t-70 14.5q43 6 73.5 14.5t51 23.5t33 37t19.5 55l25 117q5 24 12.5 39t20.5 23.5t33 11.5t50 3
q5 0 15 -0.5t15 -0.5z" />
    <glyph glyph-name="bar" unicode="|" horiz-adv-x="700" 
d="M609 764h-192l-212 -1000h192z" />
    <glyph glyph-name="braceright" unicode="}" horiz-adv-x="700" 
d="M558 566q7 31 7.5 53t-5 37t-17.5 25t-31 18q-15 6 -34 10t-44.5 7t-60.5 4t-83 1h-54l-29 -139q5 0 14.5 0.5t14.5 0.5q30 0 49 -3t28.5 -11.5t11 -23.5t-3.5 -39l-26 -118q-7 -33 -4 -55t17 -36.5t40.5 -23t67.5 -14.5q-88 -10 -125 -38q-36 -26 -50 -91l-25 -118
q-5 -24 -13 -39t-21.5 -23.5t-33.5 -11.5t-50 -3q-5 0 -14.5 0.5t-14.5 0.5l-29 -138h64q44 0 77.5 1t60 3.5t46.5 6.5t37 10q22 7 38.5 17t28.5 25.5t20.5 37.5t15.5 53l27 126q6 31 18.5 52.5t32 35t47.5 19.5t66 6q5 0 11.5 -0.5t11.5 -0.5l30 138q-5 0 -12 -0.5
t-12 -0.5q-77 0 -103.5 25t-12.5 88z" />
    <glyph glyph-name="asciitilde" unicode="~" horiz-adv-x="1166" 
d="M1102 265l31 146q-80 -37 -143 -55t-123 -18q-28 0 -66 6.5t-90 19.5q-14 4 -23 6.5t-17 4.5q-60 14 -103.5 20t-82.5 6q-64 0 -133.5 -16.5t-159.5 -53.5l-31 -146q88 40 154.5 58.5t124.5 18.5q23 0 45.5 -1.5t45.5 -5.5q24 -3 55.5 -9.5t71.5 -17.5q31 -9 56 -14.5
t45.5 -8.5t39 -4t36.5 -1q60 0 124 15.5t143 49.5z" />
    <glyph glyph-name="copyright" unicode="&#xa9;" horiz-adv-x="833" 
d="M482 431h118q-4 69 -53.5 108t-136.5 39t-141 -60t-54 -158q0 -100 54 -156.5t150 -56.5q82 0 132.5 43t53.5 116h-121q-4 -70 -62 -70q-80 0 -80 128q0 63 20 98t56 35q28 0 45 -17.5t19 -48.5zM709 363q0 -60 -21 -111.5t-63 -93.5q-43 -42 -96.5 -64.5t-111.5 -22.5
q-120 0 -206 86q-42 42 -64 95t-22 111t22.5 111.5t64.5 96.5q40 42 92.5 63t112.5 21q121 0 207 -86q42 -42 63.5 -95t21.5 -111zM416 729q-75 0 -140.5 -27t-116.5 -78q-54 -54 -81.5 -120.5t-27.5 -141.5q0 -73 27 -139.5t81 -118.5q54 -54 119.5 -81.5t138.5 -27.5
q72 0 140 28t122 82q52 51 79 116.5t27 140.5t-27.5 142t-78.5 118q-52 52 -119 79.5t-143 27.5z" />
    <glyph glyph-name="registered" unicode="&#xae;" horiz-adv-x="833" 
d="M402 491q65 0 65 -46q0 -48 -58 -48h-26v94h19zM421 569h-163v-397h125v152h12l71 -152h136l-87 173q38 13 59 41t21 66q0 57 -44.5 87t-129.5 30zM709 363q0 -60 -21 -111.5t-63 -93.5q-43 -42 -96.5 -64.5t-111.5 -22.5q-120 0 -206 86q-42 42 -64 95t-22 111
t22.5 111.5t64.5 96.5q40 42 92.5 63t112.5 21q121 0 207 -86q42 -42 63.5 -95t21.5 -111zM416 729q-75 0 -140.5 -27t-116.5 -78q-54 -54 -81.5 -120.5t-27.5 -141.5q0 -73 27 -139.5t81 -118.5q54 -54 119.5 -81.5t138.5 -27.5q72 0 140 28t122 82q52 51 79 116.5
t27 140.5t-27.5 142t-78.5 118q-52 52 -119 79.5t-143 27.5z" />
  </font>
</defs>
</svg>
