<svg xmlns="http://www.w3.org/2000/svg" xmlns:xlink="http://www.w3.org/1999/xlink" viewBox="0 0 400 400"><defs><style>.cls-1{fill:#afadae;}.cls-2{fill:#040707;}.cls-3{fill:url(#radial-gradient);}.cls-4{fill:#a71e24;}</style><radialGradient id="radial-gradient" cx="199.75" cy="199.88" r="105" gradientUnits="userSpaceOnUse"><stop offset="0.42" stop-color="#656768"/><stop offset="0.44" stop-color="#595a5b"/><stop offset="0.48" stop-color="#4e4f50"/><stop offset="0.52" stop-color="#484849"/><stop offset="0.65" stop-color="#464647"/><stop offset="0.81" stop-color="#49494a"/><stop offset="0.94" stop-color="#545454"/><stop offset="0.97" stop-color="#575757"/><stop offset="1" stop-color="#464647"/></radialGradient></defs><title>brakes</title><g id="Brakes"><g id="_Ellipse_" data-name="&lt;Ellipse&gt;"><path class="cls-1" d="M199.75,390.25c-105,0-190.5-85.46-190.5-190.5S94.71,9.25,199.75,9.25s190.5,85.46,190.5,190.5S304.79,390.25,199.75,390.25Z"/><path class="cls-2" d="M199.75,16.75a183,183,0,0,1,129.4,312.4A183,183,0,1,1,70.35,70.35a181.8,181.8,0,0,1,129.4-53.6m0-15c-109.35,0-198,88.65-198,198s88.65,198,198,198,198-88.65,198-198-88.65-198-198-198Z"/></g><circle class="cls-3" cx="199.75" cy="199.88" r="105"/><circle class="cls-2" cx="199.75" cy="199.88" r="45"/><circle class="cls-2" cx="247.5" cy="167.5" r="2.5"/><circle class="cls-2" cx="267.5" cy="172.5" r="2.5"/><circle class="cls-2" cx="287.5" cy="182.5" r="2.5"/><circle class="cls-2" cx="224.89" cy="148.1" r="2.5" transform="translate(-43.92 132.29) rotate(-30)"/><circle class="cls-2" cx="244.71" cy="142.43" r="2.5" transform="translate(-38.43 141.44) rotate(-30)"/><circle class="cls-2" cx="267.03" cy="141.09" r="2.5" transform="translate(-34.77 152.42) rotate(-30)"/><circle class="cls-2" cx="195.6" cy="142.61" r="2.5" transform="translate(-25.71 240.71) rotate(-60)"/><circle class="cls-2" cx="209.93" cy="127.79" r="2.5" transform="matrix(0.5, -0.87, 0.87, 0.5, -5.71, 245.71)"/><circle class="cls-2" cx="228.59" cy="115.47" r="2.5" transform="translate(14.29 255.71) rotate(-60)"/><circle class="cls-2" cx="167.5" cy="152.5" r="2.5"/><circle class="cls-2" cx="172.5" cy="132.5" r="2.5"/><circle class="cls-2" cx="182.5" cy="112.5" r="2.5"/><circle class="cls-2" cx="148.1" cy="175.11" r="2.5" transform="translate(-67.71 97.51) rotate(-30)"/><circle class="cls-2" cx="142.43" cy="155.29" r="2.5" transform="translate(-58.56 92.02) rotate(-30)"/><circle class="cls-2" cx="141.09" cy="132.97" r="2.5" transform="translate(-47.58 88.36) rotate(-30)"/><circle class="cls-2" cx="142.61" cy="204.4" r="2.5" transform="translate(-105.71 225.71) rotate(-60)"/><circle class="cls-2" cx="127.79" cy="190.07" r="2.5" transform="translate(-100.71 205.71) rotate(-60)"/><circle class="cls-2" cx="115.47" cy="171.41" r="2.5" transform="translate(-90.71 185.71) rotate(-60)"/><path class="cls-4" d="M214.9,136.38a30.42,30.42,0,0,1-5.53,1.68c-6.64,1.55-13.44,2.39-20,4.15a73.31,73.31,0,0,0-39.63,26.61c-5.52,7.4-9.51,15.81-12.9,24.36-1.86,4.68-3,14.48-8.72,16.19-8,2.41-17.88-9.26-22.5-14.2-3.85-4.12-7.44-8.46-10.92-12.9-2.39-3.05-5.23-6.2-7.13-9.59-5-8.83,1.12-20.66,5.3-28.73a113.29,113.29,0,0,1,36.08-41.3,102.52,102.52,0,0,1,31.46-14.53c8.61-2.3,19.78-5.66,27.83,0,4.72,3.3,8.84,8.61,12.78,12.81C206.45,106.73,230.3,129.44,214.9,136.38Z"/><circle class="cls-2" cx="152.5" cy="232.5" r="2.5"/><circle class="cls-2" cx="132.5" cy="227.5" r="2.5"/><circle class="cls-2" cx="112.5" cy="217.5" r="2.5"/><circle class="cls-2" cx="175.11" cy="251.9" r="2.5" transform="translate(-102.49 121.3) rotate(-30)"/><circle class="cls-2" cx="155.29" cy="257.57" r="2.5" transform="translate(-107.98 112.15) rotate(-30)"/><circle class="cls-2" cx="132.97" cy="258.91" r="2.5" transform="translate(-111.64 101.17) rotate(-30)"/><circle class="cls-2" cx="204.4" cy="257.39" r="2.5" transform="translate(-120.71 305.71) rotate(-60)"/><circle class="cls-2" cx="190.07" cy="272.21" r="2.5" transform="translate(-140.71 300.71) rotate(-60)"/><circle class="cls-2" cx="171.41" cy="284.53" r="2.5" transform="translate(-160.71 290.71) rotate(-60)"/><circle class="cls-2" cx="232.5" cy="247.5" r="2.5"/><circle class="cls-2" cx="227.5" cy="267.5" r="2.5"/><circle class="cls-2" cx="217.5" cy="287.5" r="2.5"/><circle class="cls-2" cx="251.9" cy="224.89" r="2.5" transform="translate(-78.7 156.08) rotate(-30)"/><circle class="cls-2" cx="257.57" cy="244.71" r="2.5" transform="translate(-87.85 161.57) rotate(-30)"/><circle class="cls-2" cx="258.91" cy="267.03" r="2.5" transform="translate(-98.83 165.23) rotate(-30)"/><circle class="cls-2" cx="257.39" cy="195.6" r="2.5" transform="translate(-40.71 320.71) rotate(-60)"/><circle class="cls-2" cx="272.21" cy="209.93" r="2.5" transform="translate(-45.71 340.71) rotate(-60)"/><circle class="cls-2" cx="284.53" cy="228.59" r="2.5" transform="translate(-55.71 360.71) rotate(-60)"/></g></svg>