<svg xmlns="http://www.w3.org/2000/svg" xmlns:xlink="http://www.w3.org/1999/xlink" viewBox="0 0 400 400"><defs><style>.cls-1{fill:#040707;}.cls-2{fill:#fff;}.cls-3{fill:#afadae;}.cls-4{clip-path:url(#clip-path);}.cls-5{fill:none;stroke:#a71e24;stroke-miterlimit:10;stroke-width:22px;}.cls-6{fill:url(#linear-gradient);}</style><clipPath id="clip-path"><path class="cls-1" d="M112,305c-10.84-14.65-22.84-30.11-25.48-48.14-1-6.82-.72-13.77-.23-20.65C89.12,196.44,89.48,162.91,112,130s50-55,100-60A105,105,0,0,1,317,175c0,58-40,95-100,115C163.84,309.61,122,315,112,305Z"/></clipPath><linearGradient id="linear-gradient" x1="86.75" y1="184.8" x2="248.33" y2="204.64" gradientUnits="userSpaceOnUse"><stop offset="0.07" stop-color="#464647"/><stop offset="0.11" stop-color="#3d3d3e"/><stop offset="0.17" stop-color="#242424"/><stop offset="0.23" stop-color="#020202"/><stop offset="0.36" stop-color="#0f0f0f"/><stop offset="0.61" stop-color="#313132"/><stop offset="0.74" stop-color="#464647"/><stop offset="1" stop-color="#666"/></linearGradient></defs><title>helmet</title><g id="Wheel"><circle class="cls-2" cx="180" cy="155" r="105"/></g><g id="Layer_4" data-name="Layer 4"><g id="_Ellipse_" data-name="&lt;Ellipse&gt;"><path class="cls-3" d="M198,388.5C93,388.5,7.5,303,7.5,198S93,7.5,198,7.5,388.5,93,388.5,198,303,388.5,198,388.5Z"/><path class="cls-1" d="M198,15A183,183,0,0,1,327.4,327.4,183,183,0,0,1,68.6,68.6,181.8,181.8,0,0,1,198,15m0-15C88.65,0,0,88.65,0,198S88.65,396,198,396s198-88.65,198-198S307.35,0,198,0Z"/></g><path class="cls-1" d="M112,305c-10.84-14.65-22.84-30.11-25.48-48.14-1-6.82-.72-13.77-.23-20.65C89.12,196.44,89.48,162.91,112,130s50-55,100-60A105,105,0,0,1,317,175c0,58-40,95-100,115C163.84,309.61,122,315,112,305Z"/><g class="cls-4"><path class="cls-5" d="M112,181.76q.12-.86.25-1.76C118.26,140.72,155,50.76,267,66.92"/><path class="cls-5" d="M152,325l-15-10s-25-25-30-40,5.25-95,5.25-95"/><path class="cls-6" d="M85.37,233.56a10.15,10.15,0,0,0,1.29,6.61c3.1,5.19,8.6,8.93,14.44,10.84,20.63,6.74,41.77.78,61.71-5.32a418.11,418.11,0,0,0,62.67-24.83c8.62-4.25,14.9-9,18.36-18.15a158.54,158.54,0,0,0,8.3-31.44c1.42-9.08,4.08-21.09-1.4-29.29-1.2-1.8-3.16-3.54-5.27-3.06a6.3,6.3,0,0,0-2.52,1.52c-16.31,13.78-40.73,20.16-61,25.44A271.81,271.81,0,0,1,127,174.29c-13.56.67-27,1-31.36-13.87C82,169.91,85.37,233.56,85.37,233.56Z"/></g></g></svg>