<svg xmlns="http://www.w3.org/2000/svg" xmlns:xlink="http://www.w3.org/1999/xlink" viewBox="0 0 400 400"><defs><style>.cls-1{fill:#afadae;}.cls-2{fill:#040707;}.cls-3{fill:#464647;}.cls-4{fill:url(#linear-gradient);}</style><linearGradient id="linear-gradient" x1="190.26" y1="281.78" x2="223.17" y2="224.78" gradientUnits="userSpaceOnUse"><stop offset="0" stop-color="#fff"/><stop offset="0.08" stop-color="#e8e8e8"/><stop offset="0.34" stop-color="#a3a3a3"/><stop offset="0.56" stop-color="#717171"/><stop offset="0.73" stop-color="#525253"/><stop offset="0.82" stop-color="#464647"/></linearGradient></defs><title>OilSpecial</title><g id="OilChange"><g id="_Ellipse_" data-name="&lt;Ellipse&gt;"><path class="cls-1" d="M201,390.5C96,390.5,10.5,305,10.5,200S96,9.5,201,9.5,391.5,95,391.5,200,306,390.5,201,390.5Z"/><path class="cls-2" d="M201,17A183,183,0,0,1,330.4,329.4,183,183,0,0,1,71.6,70.6,181.8,181.8,0,0,1,201,17m0-15C91.65,2,3,90.65,3,200S91.65,398,201,398s198-88.65,198-198S310.35,2,201,2Z"/></g><path class="cls-3" d="M168,311.18c-21.43-6.2-37.81-24.66-45.6-45.71-6.29-17-6.46-36.32.21-53.18,8.47-21.43,26.71-37.24,44.64-51.71,32-25.84,68.92-61.37,57.75-107.22,6.58,25.23,12,50.82,18,76.19,6.19,26.2,12.86,52.29,13.21,79.39C256.52,238.27,248,271,228,293.22a60.08,60.08,0,0,1-45.7,20.16A56.2,56.2,0,0,1,168,311.18Z"/><path class="cls-4" d="M181.54,270.41c.45-.33.92-.63,1.24-.91a69.85,69.85,0,0,0,18.72-26,61.22,61.22,0,0,0,4.06-15.76c.14-1.18-.06-2.86.33-4,.58-1.64,1.35-1,3.1-.6l10.1,2.1,6.87,1.43c4.4.91,2.94,6.32,2.58,9.78a59.9,59.9,0,0,1-2.81,12.92c-5,14.83-16.68,27.84-32,32.23a5.34,5.34,0,0,1-4.38-.35,8.46,8.46,0,0,1-1.92-2.12,21.09,21.09,0,0,0-3.65-3.76C182.28,274.19,179.06,272.26,181.54,270.41Z"/></g><g id="Brakes"><path class="cls-4" d="M181.54,270.41c.45-.33.92-.63,1.24-.91a69.85,69.85,0,0,0,18.72-26,61.22,61.22,0,0,0,4.06-15.76c.14-1.18-.06-2.86.33-4,.58-1.64,1.35-1,3.1-.6l10.1,2.1,6.87,1.43c4.4.91,2.94,6.32,2.58,9.78a59.9,59.9,0,0,1-2.81,12.92c-5,14.83-16.68,27.84-32,32.23a5.34,5.34,0,0,1-4.38-.35,8.46,8.46,0,0,1-1.92-2.12,21.09,21.09,0,0,0-3.65-3.76C182.28,274.19,179.06,272.26,181.54,270.41Z"/></g></svg>