<svg xmlns="http://www.w3.org/2000/svg" viewBox="0 0 400 400"><defs><style>.cls-1{fill:#afadae;}.cls-2{fill:#040707;}.cls-3{fill:#464647;}.cls-4{fill:#7c232a;}.cls-5{fill:#efefef;}.cls-6{fill:#a71e24;}</style></defs><title>service</title><g id="Layer_5" data-name="Layer 5"><g id="_Ellipse_" data-name="&lt;Ellipse&gt;"><path class="cls-1" d="M199.5,390C94.46,390,9,304.54,9,199.5S94.46,9,199.5,9,390,94.46,390,199.5,304.54,390,199.5,390Z"/><path class="cls-2" d="M199.5,16.5A183,183,0,0,1,328.9,328.9,183,183,0,1,1,70.1,70.1,181.8,181.8,0,0,1,199.5,16.5m0-15c-109.35,0-198,88.65-198,198s88.65,198,198,198,198-88.65,198-198-88.65-198-198-198Z"/></g><path class="cls-3" d="M317.13,267,193.82,363.8c-6.88,5.41-15.36,3.11-18.61-5.27L76,103.3c-3.26-8.38,1.45-15.79,10.17-16.46L242.54,75c4.07-.31,9.09,4,11.23,9.47L319,252.4C321.16,257.92,320.34,264.45,317.13,267Z"/><path class="cls-4" d="M180.23,67.26l-15.45,1.51c-3.3.32-5.21,2.8-4.43,5.72l4.42,16.59c2.57,9.66-9.91,4.93-14.86,7.4s3.86,14.5,3.86,14.5l57.48-5.36s1.53-12.45-3.86-14.5S194.87,98.31,192.65,90c-1.37-5.14-3.45-12.78-4.85-17.89C187,69.17,183.5,66.95,180.23,67.26Z"/><path class="cls-5" d="M315,250,192.5,342.5l-3-2.68a39.28,39.28,0,0,1-10.52-15L92.61,107.5l14.89-1.42L250,92.5l2,8,49.53,128.09A62.17,62.17,0,0,0,311,245Z"/><path class="cls-6" d="M191.94,65.56,177.81,67a5.9,5.9,0,0,0-5.31,5.87V90c0,10-10,5-15,7.5s0,15,0,15l52.5-5s4.32-12.84,0-15-12.38,5.24-12.38-3.4c0-5.32,0-13.22-.08-18.51A5.09,5.09,0,0,0,191.94,65.56Z"/><path class="cls-2" d="M163,140.12l11.08,30.83-25.82,6.58-11.89-33,26.63-4.4m0-3a3,3,0,0,0-.49,0l-26.63,4.4a3,3,0,0,0-2.33,4l11.89,33a3,3,0,0,0,3.56,1.89l25.82-6.58a3,3,0,0,0,2.08-3.92L165.85,139.1a3,3,0,0,0-2.82-2Z"/><path class="cls-2" d="M179.57,184.09l11.05,30.78-24,10-11.86-33,24.77-7.81m0-3a3,3,0,0,0-.9.14L153.9,189a3,3,0,0,0-1.92,3.88l11.86,33a3,3,0,0,0,4,1.75l24-10a3,3,0,0,0,1.67-3.78l-11.05-30.78a3,3,0,0,0-2.82-2Z"/><path class="cls-2" d="M196.4,229.34l11,30.74-23.28,11.79-11.49-31.93,23.72-10.6m0-3a3,3,0,0,0-1.22.26l-23.72,10.6a3,3,0,0,0-1.6,3.75l11.49,31.93a3,3,0,0,0,4.18,1.66l23.28-11.79a3,3,0,0,0,1.47-3.69l-11-30.74a3,3,0,0,0-2.82-2Z"/><path class="cls-2" d="M186.78,159.66a111.75,111.75,0,0,1-5.62-25.48l-2.8.76a107.64,107.64,0,0,1,6.53,17.27c.54,1.89,3.23,1.08,2.89-.8a10.06,10.06,0,0,1-.08-4.33l-2.8.76a19.17,19.17,0,0,0,2.69,4.73,1.54,1.54,0,0,0,1.82.23c2.64-1.12,2.59-5.23,3.15-7.65l-2.95-.4c0,2.58,1.1,6,4.33,5.82a3.44,3.44,0,0,0,3-4.59c-.63-1.81-3.52-1-2.89.8l-1.47-2c0-1.65-2.56-2.08-2.95-.4-.21.89-.88,5.47-1.77,5.85l1.82.23a18.65,18.65,0,0,1-2.22-4.12c-.72-1.49-2.64-.55-2.8.76a16.28,16.28,0,0,0,.19,5.13l2.89-.8a112.26,112.26,0,0,0-6.83-18,1.51,1.51,0,0,0-2.8.76,115.13,115.13,0,0,0,5.73,26.28c.63,1.81,3.52,1,2.89-.8Z"/><path class="cls-2" d="M200.32,144.77a3.56,3.56,0,0,1,2-1.32l-1.9-1.45.24,3.6a1.52,1.52,0,0,0,2.26,1.3,11.54,11.54,0,0,0,4.78-6.09c.63-1.83-2.27-2.62-2.89-.8a8.22,8.22,0,0,1-3.4,4.3l2.26,1.3-.24-3.6a1.52,1.52,0,0,0-1.9-1.45,6.9,6.9,0,0,0-3.77,2.69c-1.15,1.56,1.46,3.05,2.59,1.51Z"/><path class="cls-2" d="M209.63,133.39q1.21,6.72,2.84,13.34a1.52,1.52,0,0,0,2.74.36,59.33,59.33,0,0,0,3.85-8.14h-2.89c.53,2.9,2,10,6.41,9.05s3.63-8,2.49-11a1.52,1.52,0,0,0-1.85-1,3.05,3.05,0,0,0-1.8,4.49,1.51,1.51,0,0,0,1.69.69,6.36,6.36,0,0,0,4.57-5.67c.24-1.91-2.76-1.89-3,0a3.05,3.05,0,0,1-2.36,2.78L224,139v-.08l-1.85-1a10,10,0,0,1,.78,3.27,8.08,8.08,0,0,1-.26,2.41q0,1.87-1.12.89c-1.67-.43-2.25-4.81-2.51-6.25-.29-1.61-2.42-1.23-2.89,0a54.05,54.05,0,0,1-3.55,7.42l2.74.36q-1.63-6.62-2.84-13.34c-.34-1.9-3.23-1.09-2.89.8Z"/><path class="cls-2" d="M229.34,135.93c.37-.17,3.73-1.49,3.19.17a1.51,1.51,0,0,0,1.85,1.85,10.1,10.1,0,0,0,4.17-2.4c1.41-1.33-.72-3.45-2.12-2.12a6.76,6.76,0,0,1-2.84,1.63l1.85,1.85a3.53,3.53,0,0,0-1.79-4.19c-1.91-1-4-.21-5.81.64s-.23,3.4,1.51,2.59Z"/><path class="cls-2" d="M247,136a1.5,1.5,0,0,0,0-3,1.5,1.5,0,0,0,0,3Z"/><path class="cls-2" d="M202.71,206.16q-3.47-13.2-6.31-26.55l-2.89.8a181.36,181.36,0,0,0,7.75,16.94,1.51,1.51,0,0,0,2.8-.76,19.35,19.35,0,0,0-3-9.62l-2.36,1.82c1.67,1.89,3.15,4.56,5.79,5a1.58,1.58,0,0,0,1.69-.69,2.21,2.21,0,0,0,.32-2.32,1.56,1.56,0,0,0-1.45-1.1c-1.95-.18-2.69,1.68-2.54,3.34.08.88.91,1.81,1.9,1.45a13.1,13.1,0,0,0,4.11-2.38c1.48-1.24-.65-3.35-2.12-2.12l-2.78,1.61,1.9,1.45-.46-.34-1.45-1.1h0l1.69-.69c-1.83-.3-3.33-2.94-4.46-4.22s-3.24.38-2.36,1.82a16,16,0,0,1,2.54,8.1l2.8-.76a173.79,173.79,0,0,1-7.45-16.22,1.5,1.5,0,0,0-2.89.8q2.84,13.35,6.31,26.55a1.5,1.5,0,0,0,2.89-.8Z"/><path class="cls-2" d="M214,192.42l1-2.38-2.74.36,1.71,3.81c.5,1.11,2,.83,2.59,0l1.31-1.91a1.51,1.51,0,0,0-.54-2.05,1.53,1.53,0,0,0-2.05.54L214,192.7h2.59l-1.71-3.81a1.48,1.48,0,0,0-1.49-.72,1.56,1.56,0,0,0-1.25,1.07l-1,2.38a1.51,1.51,0,0,0,1,1.85,1.54,1.54,0,0,0,1.85-1Z"/><path class="cls-2" d="M224.12,183.56a25.8,25.8,0,0,1,.62-13.07h-2.89l3.09,13.33c.39,1.68,2.92,1.27,2.95-.4l.09-4.87,0-2.17,0-1.08q.25-1.14-.76-.05c-.14.83,1.2,2.95,1.53,3.75l1.92,4.69c.49,1.21,2.58,1.62,2.89,0a21.83,21.83,0,0,0,.35-6.19c-.17-1.91-3.17-1.93-3,0a19.07,19.07,0,0,1-.24,5.39h2.89l-3.26-8c-.55-1.36-1.21-3.48-3-3.61-1.48-.1-2.1,1.07-2.28,2.36-.44,3.14-.12,6.57-.17,9.74l2.95-.4-3.09-13.33a1.51,1.51,0,0,0-2.89,0,29,29,0,0,0-.62,14.67c.4,1.89,3.29,1.09,2.89-.8Z"/><path class="cls-2" d="M240.44,177.5l.21-4.49-2.56,1.06a5.61,5.61,0,0,1,1.93,3.21c.34,1.55,2.44,1.3,2.89,0l.64-1.84c.64-1.83-2.26-2.61-2.89-.8l-.64,1.84h2.89a8.29,8.29,0,0,0-2.7-4.53,1.52,1.52,0,0,0-2.56,1.06l-.21,4.49c-.09,1.93,2.91,1.93,3,0Z"/><path class="cls-2" d="M245.68,173.62a7.44,7.44,0,0,0,8.62-4.77c.67-1.82-2.23-2.6-2.89-.8a4.37,4.37,0,0,1-4.93,2.67c-1.88-.41-2.69,2.48-.8,2.89Z"/><path class="cls-2" d="M220,248.1a83,83,0,0,1-3.37-13.3l-2.89.8a41.29,41.29,0,0,0,4.58,10.58,1.52,1.52,0,0,0,2.74-.36,38.38,38.38,0,0,0,.5-15.66l-2.74,1.16c2.55,3.54,2.28,8.41,5.87,11.27a1.52,1.52,0,0,0,2.56-1.06,57.26,57.26,0,0,0,.26-8.87l-2.95.4a10.62,10.62,0,0,0,4.69,5.8c1.65,1,3.16-1.59,1.51-2.59a7.21,7.21,0,0,1-3.32-4c-.54-1.5-3-1.4-2.95.4a57.26,57.26,0,0,1-.26,8.87l2.56-1.06c-3.23-2.58-3-7.4-5.4-10.67a1.51,1.51,0,0,0-2.74,1.16,34.53,34.53,0,0,1-.5,14.07l2.74-.36a38.44,38.44,0,0,1-4.28-9.87c-.52-1.9-3.2-1.07-2.89.8a83,83,0,0,0,3.37,13.3c.62,1.82,3.52,1,2.89-.8Z"/><path class="cls-2" d="M237,236a1.5,1.5,0,0,0,0-3,1.5,1.5,0,0,0,0,3Z"/><path class="cls-2" d="M247.75,228.77a17,17,0,0,1-2.53-9.78l-2.95.4a47.21,47.21,0,0,0,4,10.34c.75,1.43,2.67.61,2.8-.76A60.32,60.32,0,0,1,251,218.59l-2.74.36,3.36,6.7c.54,1.08,2.56.93,2.74-.36l1-7.35h-2.89c1.15,2.81,4.32,5.67,6.77,2.29,1.14-1.56-1.47-3.06-2.59-1.51a2.09,2.09,0,0,1-1.29-1.57c-.48-1.17-2.66-1.66-2.89,0l-1,7.35,2.74-.36-3.36-6.7a1.52,1.52,0,0,0-2.74.36A64.9,64.9,0,0,0,246,229l2.8-.76a43.81,43.81,0,0,1-3.67-9.62,1.51,1.51,0,0,0-2.95.4,19.91,19.91,0,0,0,2.94,11.3c1,1.65,3.6.14,2.59-1.51Z"/><path class="cls-2" d="M260.49,215.66c-.38-.87-1.45-2.36-1.36-3.25.18-1.8,4-1,3.79-.18a1.54,1.54,0,0,0,1,1.85c2.38.73,3.74,4.67,6.54,3.84,2.59-.77,2.34-3.7,1.69-5.69l-1,1.85a34.77,34.77,0,0,0,5.6-2.78c1.64-1,.13-3.61-1.51-2.59a30.33,30.33,0,0,1-4.89,2.48,1.53,1.53,0,0,0-1,1.85c.87,2.66-.7.3-1.51-.35a8.76,8.76,0,0,0-3-1.49l1,1.85c.82-3.8-2.7-5.62-6-4.78-5.56,1.41-3.7,4.75-1.9,8.92.77,1.77,3.35.24,2.59-1.51Z"/><path class="cls-6" d="M139.06,159.85c5.45,5,11.2,9.81,16.45,15l.21-.29c2.34-7.46,5-15.24,8.93-22A46.07,46.07,0,0,1,171.9,143c1.18-1.17,6.65-6.48,7.85-5.66l-.93-10,0,1.76c0,2.23-.29,5.32.41,7.45.24.75.38,2.44.72.54,1-5.5.36-11.53-.63-17a1.77,1.77,0,0,0-.44-1.23c-7,2.47-11.82,9.77-15.1,16.09-4,7.66-7.64,16.47-9,25l.38-1.1c-5.62-3.16-10.9-7.06-16.34-10.54-.13-.08-.45,5.31-.44,5.77,0,1.32-.37,4.74.73,5.74Z"/><path class="cls-6" d="M158.46,205.11c5.37,5.56,11.6,10.78,16.17,17,.63.86.85-4.73.86-5.12a66.3,66.3,0,0,0-.61-11c1.55,10.24.21,7.56,1.56,3.1q.69-2.28,1.53-4.51a66.54,66.54,0,0,1,4.4-9.4c.73-1.29,12.23-18.09,13.87-14.81l-.63-11-.23,1.58c-.19,1.25.8,10,.49,10.26,1.58-1.14,1-4.41,1-6.12,0-3.17.41-8-.9-11-3.16-7.2-11.55,7-13.31,9.94-8.32,13.79-11.83,31.22-8.23,47.09l0-16.4c-5.79-2.36-10.9-7.42-16.24-10.75-.08-.05-.39,5.08-.38,5.52,0,1.31-.36,4.46.65,5.5Z"/></g></svg>