<svg xmlns="http://www.w3.org/2000/svg" xmlns:xlink="http://www.w3.org/1999/xlink" viewBox="0 0 400 400"><defs><style>.cls-1{fill:#afadae;}.cls-2{fill:#040707;}.cls-3{fill:url(#radial-gradient);}.cls-4{fill:#fff;}.cls-5{fill:none;stroke:#464647;stroke-linecap:round;stroke-miterlimit:10;stroke-width:3px;}</style><radialGradient id="radial-gradient" cx="200" cy="200" r="143" gradientUnits="userSpaceOnUse"><stop offset="0.75" stop-color="#020202"/><stop offset="0.76" stop-color="#0c0c0c"/><stop offset="0.78" stop-color="#212122"/><stop offset="0.8" stop-color="#323233"/><stop offset="0.83" stop-color="#3d3d3e"/><stop offset="0.88" stop-color="#444445"/><stop offset="1" stop-color="#464647"/></radialGradient></defs><title>WheelChange</title><g id="Wheel"><g id="_Ellipse_" data-name="&lt;Ellipse&gt;"><path class="cls-1" d="M201,390.5C96,390.5,10.5,305,10.5,200S96,9.5,201,9.5,391.5,95,391.5,200,306,390.5,201,390.5Z"/><path class="cls-2" d="M201,17A183,183,0,0,1,330.4,329.4,183,183,0,1,1,71.6,70.6,181.8,181.8,0,0,1,201,17m0-15C91.65,2,3,90.65,3,200S91.65,398,201,398s198-88.65,198-198S310.35,2,201,2Z"/></g><circle class="cls-3" cx="200" cy="200" r="143"/><path class="cls-4" d="M213.9,80.53a1,1,0,0,0,0-.86,1.21,1.21,0,0,0-.88-.34l-.93-.09-2,6.21-8.4-.83,4.79-15,13.61,1.34a12.12,12.12,0,0,1,2.42.45,3.77,3.77,0,0,1,1.48.8,2,2,0,0,1,.61,1.21,3.89,3.89,0,0,1-.21,1.66,5.2,5.2,0,0,1-.62,1.31,3.42,3.42,0,0,1-.92.92,4.32,4.32,0,0,1-1.3.58,9.32,9.32,0,0,1-1.73.28,3.39,3.39,0,0,1,2.26,1.54,4,4,0,0,1-.08,3L220.8,86.5l-8.54-.84ZM213.14,76l.93.09a1.62,1.62,0,0,0,1-.15,1.39,1.39,0,0,0,.54-.79,1,1,0,0,0,0-.87,1.24,1.24,0,0,0-.88-.33l-.93-.09Z"/><path class="cls-4" d="M236.43,89.22a2.52,2.52,0,0,1-1.08.6,4.16,4.16,0,0,1-1.47.1,11.89,11.89,0,0,1-2-.37L226,88a10.93,10.93,0,0,1-1.83-.63,2.76,2.76,0,0,1-1-.75,1.38,1.38,0,0,1-.29-1,3.29,3.29,0,0,1,.4-1.25l3.05-6.08a4.31,4.31,0,0,1,.81-1.14,2.43,2.43,0,0,1,1.07-.6,4.19,4.19,0,0,1,1.46-.1,11.88,11.88,0,0,1,2,.37l6,1.57a10.88,10.88,0,0,1,1.83.63,2.75,2.75,0,0,1,1,.76,1.41,1.41,0,0,1,.29,1,3.18,3.18,0,0,1-.39,1.23l-1.69,3.35-7.87-2.07-1.15,2.27q-.42.85.43,1.08a1.06,1.06,0,0,0,.75,0,1.21,1.21,0,0,0,.52-.6l.73-1.42,6.18,1.62-.95,1.88A4.19,4.19,0,0,1,236.43,89.22Zm-4.76-7.95,1.82.48.45-.88q.48-.94-.44-1.18a1.1,1.1,0,0,0-.8,0,1.51,1.51,0,0,0-.59.66Z"/><path class="cls-4" d="M251,95.22a2.41,2.41,0,0,1-1.13.44,4.25,4.25,0,0,1-1.45-.11,11.9,11.9,0,0,1-1.89-.63l-5.69-2.37a10.89,10.89,0,0,1-1.73-.87,2.84,2.84,0,0,1-.93-.89,1.41,1.41,0,0,1-.18-1,3,3,0,0,1,.55-1.16l3.82-5.52a3.75,3.75,0,0,1,.94-1,2.56,2.56,0,0,1,1.15-.44,4.21,4.21,0,0,1,1.46.1,11.94,11.94,0,0,1,1.89.63l5.69,2.37a10.89,10.89,0,0,1,1.73.87,2.85,2.85,0,0,1,.92.88,1.34,1.34,0,0,1,.16,1,3.39,3.39,0,0,1-.54,1.18l-3.82,5.52A4.19,4.19,0,0,1,251,95.22Zm-1.4-8.57q.53-.77-.28-1.11a1.1,1.1,0,0,0-.74-.08,1.16,1.16,0,0,0-.59.51l-3.23,4.69q-.54.76.28,1.11a1,1,0,0,0,1.33-.43Zm5.64,2.78L249.41,87,253.58,81l5.79,2.41Z"/><path class="cls-4" d="M261.87,85.32l5.51,3-10.27,12-5.51-3Z"/><path class="cls-4" d="M267.39,92.42l5.29,3.38L264,104.63l-5.29-3.38Zm5-4A4,4,0,0,0,270,89.57a2.64,2.64,0,0,0-.85,2.14,2.5,2.5,0,0,0,1.25,1.9,3.76,3.76,0,0,0,2.57.54A3.84,3.84,0,0,0,275.43,93a2.56,2.56,0,0,0,.82-2.14A2.48,2.48,0,0,0,275,89,3.84,3.84,0,0,0,272.42,88.43Z"/><path class="cls-4" d="M274.9,97.46l4.78,3.8-.61.49a12.15,12.15,0,0,1,2,.77,9.64,9.64,0,0,1,1.69,1.09,4.33,4.33,0,0,1,1.86,2.64,2.68,2.68,0,0,1-1.22,2.39l-6.85,5.64-4.93-3.92,6.69-5.5q.73-.61,0-1.16a1.07,1.07,0,0,0-.69-.27,1.21,1.21,0,0,0-.72.34l-6.69,5.5-4.92-3.92Z"/><path class="cls-4" d="M288.54,124.65a2.52,2.52,0,0,1-1.24-.06,4.18,4.18,0,0,1-1.31-.68,11.94,11.94,0,0,1-1.48-1.34l-4.26-4.46a10.83,10.83,0,0,1-1.23-1.5,2.75,2.75,0,0,1-.48-1.18,1.38,1.38,0,0,1,.26-1,3.28,3.28,0,0,1,1-.86l5.79-3.58a4.29,4.29,0,0,1,1.29-.55,2.44,2.44,0,0,1,1.23,0,4.2,4.2,0,0,1,1.3.68,11.91,11.91,0,0,1,1.48,1.34l4.26,4.46a10.88,10.88,0,0,1,1.23,1.49,2.75,2.75,0,0,1,.48,1.2,1.41,1.41,0,0,1-.26,1,3.19,3.19,0,0,1-1,.84l-3.19,2-5.62-5.89-2.17,1.34q-.81.51-.2,1.14a1.07,1.07,0,0,0,.65.37,1.21,1.21,0,0,0,.76-.24l1.36-.83,4.41,4.62-1.79,1.1A4.16,4.16,0,0,1,288.54,124.65Zm.11-9.26,1.3,1.36.85-.52q.9-.54.24-1.23a1.11,1.11,0,0,0-.7-.39,1.51,1.51,0,0,0-.85.26Z"/><path class="cls-4" d="M231.65,317.65l-.19-8.69,7.31-1.72.33,15.79-10.39,2.44-2.41-6-2.12,7.08L213.76,329l-.33-15.79,7.33-1.72.19,8.69,2.85-9.4,4.61-1.08Z"/><path class="cls-4" d="M210.2,323.63a2.45,2.45,0,0,1-.85.89A4.2,4.2,0,0,1,208,325a11.93,11.93,0,0,1-2,.23l-6.16.27a11,11,0,0,1-1.93-.06,2.76,2.76,0,0,1-1.22-.42,1.41,1.41,0,0,1-.57-.84,3.19,3.19,0,0,1,0-1.3l1.11-6.71a4.18,4.18,0,0,1,.44-1.32,2.52,2.52,0,0,1,.86-.89,4.14,4.14,0,0,1,1.38-.54,11.94,11.94,0,0,1,2-.23l6.16-.27A10.87,10.87,0,0,1,210,313a2.76,2.76,0,0,1,1.21.41,1.38,1.38,0,0,1,.56.83,3.28,3.28,0,0,1,0,1.31l-1.11,6.71A4.33,4.33,0,0,1,210.2,323.63Zm-4.89-7.27q.15-.94-.72-.9a1.07,1.07,0,0,0-.7.25,1.21,1.21,0,0,0-.32.73l-.95,5.7q-.15.94.71.9a1.07,1.07,0,0,0,.7-.25,1.29,1.29,0,0,0,.34-.73Z"/><path class="cls-4" d="M194.34,323l-.65,2.28-1.63-.11-.92,3.25-6.28-.42.92-3.26-1.78-.12.65-2.28,1.78.12,2.74-9.65,6.28.42-2.74,9.65Z"/><path class="cls-4" d="M182.21,322.81a2.45,2.45,0,0,1-1,.69,4.2,4.2,0,0,1-1.45.21,11.92,11.92,0,0,1-2-.21l-6.06-1.1a10.91,10.91,0,0,1-1.87-.48,2.74,2.74,0,0,1-1.09-.68,1.41,1.41,0,0,1-.37-.95,3.19,3.19,0,0,1,.3-1.26l2.57-6.3a4.17,4.17,0,0,1,.72-1.19,2.51,2.51,0,0,1,1-.68,4.17,4.17,0,0,1,1.46-.22,11.81,11.81,0,0,1,2,.21l6.06,1.1a10.8,10.8,0,0,1,1.87.48,2.74,2.74,0,0,1,1.09.67,1.38,1.38,0,0,1,.36.94,3.27,3.27,0,0,1-.3,1.28l-2.57,6.3A4.29,4.29,0,0,1,182.21,322.81Zm-3.16-8.17q.35-.88-.51-1a1.07,1.07,0,0,0-.74.09,1.2,1.2,0,0,0-.47.64l-2.18,5.35q-.35.88.49,1a1.07,1.07,0,0,0,.74-.09,1.29,1.29,0,0,0,.49-.64Z"/><path class="cls-4" d="M165.06,320.54l-5.84-1.78.38-.68a4.72,4.72,0,0,1-3.72-.12l1.71-3.08a4.42,4.42,0,0,0,2.82.14,2.45,2.45,0,0,0,1.14-.87l3.49-6.31,6,1.83Z"/><path class="cls-4" d="M147,302.16a2.53,2.53,0,0,1,1.16-.43,4.19,4.19,0,0,1,1.47.12,11.93,11.93,0,0,1,1.88.66l5.65,2.46a10.74,10.74,0,0,1,1.71.9,2.74,2.74,0,0,1,.9.9,1.38,1.38,0,0,1,.14,1,3.29,3.29,0,0,1-.59,1.18l-4,5.54a3.09,3.09,0,0,1-2.12,1.44,4.19,4.19,0,0,1-.67,0,5,5,0,0,1-.78-.13,10.55,10.55,0,0,1-1.27-.43q-.85-.33-2.16-.9l-4.12-1.79a10.93,10.93,0,0,1-1.71-.9,2.76,2.76,0,0,1-.91-.92,1.4,1.4,0,0,1-.14-1,3.18,3.18,0,0,1,.58-1.16l1.11-1.55L149,309.7l-.8,1.12q-.55.78.24,1.12a1.07,1.07,0,0,0,.74.08,1.29,1.29,0,0,0,.63-.51l3.36-4.7q.55-.78-.25-1.13a1.06,1.06,0,0,0-.74-.08,1.21,1.21,0,0,0-.61.51l-1.17,1.63-5.86-2.55,1.45-2A4.17,4.17,0,0,1,147,302.16Z"/><path class="cls-4" d="M136.11,290.33l5.2,3.2-2.69,2.81a12.64,12.64,0,0,1,2.09.53,9.53,9.53,0,0,1,1.83.88,4.25,4.25,0,0,1,2.15,2.4,2.71,2.71,0,0,1-.94,2.53l-6.12,6.42-5.36-3.3,6-6.26q.65-.69-.09-1.15a1.1,1.1,0,0,0-.73-.19,1.17,1.17,0,0,0-.68.42l-6,6.26-5.36-3.3Z"/><path class="cls-4" d="M120.59,283.51a2.52,2.52,0,0,1,1.23-.09,4.16,4.16,0,0,1,1.38.52,11.89,11.89,0,0,1,1.62,1.16l4.75,3.93a10.84,10.84,0,0,1,1.4,1.34,2.76,2.76,0,0,1,.62,1.12,1.38,1.38,0,0,1-.14,1,3.3,3.3,0,0,1-.89,1l-5.33,4.23a3.09,3.09,0,0,1-2.44.8,4.28,4.28,0,0,1-.65-.19,5,5,0,0,1-.71-.34,10.86,10.86,0,0,1-1.1-.76q-.73-.55-1.83-1.46L115,292.87a10.91,10.91,0,0,1-1.4-1.34,2.76,2.76,0,0,1-.62-1.13,1.4,1.4,0,0,1,.14-1,3.18,3.18,0,0,1,.88-1l1.5-1.18,4.92,4.07-1.08.86q-.74.6-.08,1.14a1.06,1.06,0,0,0,.69.29,1.29,1.29,0,0,0,.74-.31l4.53-3.59q.74-.6.07-1.15a1.06,1.06,0,0,0-.69-.29,1.2,1.2,0,0,0-.73.33l-1.57,1.24-4.92-4.07,2-1.56A4.17,4.17,0,0,1,120.59,283.51Z"/><path class="cls-4" d="M107.36,289.84l-4.4-4.48,13.32-8.48,4.4,4.48Z"/><path class="cls-4" d="M105,265.48a2.51,2.51,0,0,1,1.23.16,4.13,4.13,0,0,1,1.24.79,11.79,11.79,0,0,1,1.35,1.46l3.85,4.81a10.81,10.81,0,0,1,1.09,1.6,2.75,2.75,0,0,1,.38,1.22,1.37,1.37,0,0,1-.34.94,3.27,3.27,0,0,1-1.07.77l-6.08,3.06a4.31,4.31,0,0,1-1.33.43,2.44,2.44,0,0,1-1.22-.16,4.2,4.2,0,0,1-1.23-.79,11.94,11.94,0,0,1-1.35-1.46l-3.85-4.81a10.88,10.88,0,0,1-1.09-1.6,2.78,2.78,0,0,1-.38-1.23,1.41,1.41,0,0,1,.34-1,3.2,3.2,0,0,1,1.05-.76l3.36-1.68,5.08,6.36,2.28-1.14q.85-.43.3-1.12A1.06,1.06,0,0,0,108,271a1.2,1.2,0,0,0-.78.17l-1.43.71-4-5,1.88-.94A4.16,4.16,0,0,1,105,265.48Zm-.93,9.21-1.18-1.47-.89.44q-.94.46-.35,1.21a1.11,1.11,0,0,0,.66.45,1.51,1.51,0,0,0,.87-.18Z"/><path class="cls-4" d="M96.83,252a2.52,2.52,0,0,1,1.19.33,4.16,4.16,0,0,1,1.13,1,11.9,11.9,0,0,1,1.14,1.63l3.16,5.29a10.89,10.89,0,0,1,.87,1.73,2.74,2.74,0,0,1,.21,1.26,1.38,1.38,0,0,1-.47.89,3.29,3.29,0,0,1-1.16.62l-1.45.51-3.27-5.47,1-.34q.9-.31.45-1.07a1.07,1.07,0,0,0-.55-.5,1.21,1.21,0,0,0-.79.06l-.32.1q-.79.27-.4,1.66l1,3.43a4.44,4.44,0,0,1,.24,2.29,1.82,1.82,0,0,1-1.28,1.05l-1.11.37A4.26,4.26,0,0,1,95,267a2.42,2.42,0,0,1-1.19-.33,4.32,4.32,0,0,1-1.12-1,11.91,11.91,0,0,1-1.14-1.63l-3.09-5.18a10.91,10.91,0,0,1-.87-1.73,2.76,2.76,0,0,1-.21-1.27,1.41,1.41,0,0,1,.47-.9,3.19,3.19,0,0,1,1.14-.61l.79-.27L93,259.59l-.29.11q-.9.31-.46,1a1.21,1.21,0,0,0,.51.48.74.74,0,0,0,.6,0,1.07,1.07,0,0,0,.3-.16.45.45,0,0,0,.16-.29,1.6,1.6,0,0,0,0-.53,6.75,6.75,0,0,0-.22-.87l-.75-2.59a5.42,5.42,0,0,1-.3-2.83A2,2,0,0,1,94,252.72l1.41-.49A4.2,4.2,0,0,1,96.83,252Z"/><g id="_Ellipse_2" data-name="&lt;Ellipse&gt;"><path class="cls-1" d="M201,300.5A100.5,100.5,0,1,1,301.5,200,100.61,100.61,0,0,1,201,300.5Z"/><path class="cls-2" d="M201,107a93,93,0,1,1-93,93,93.11,93.11,0,0,1,93-93m0-15A108,108,0,1,0,309,200,108,108,0,0,0,201,92Z"/></g><circle class="cls-2" cx="200" cy="200" r="29"/><line class="cls-5" x1="201.12" y1="177.2" x2="188.07" y2="106.5"/><line class="cls-5" x1="199.06" y1="177.37" x2="211.14" y2="107.05"/><line class="cls-5" x1="197.14" y1="177.35" x2="172.01" y2="109.99"/><line class="cls-5" x1="195.14" y1="177.88" x2="194.83" y2="106.53"/><line class="cls-5" x1="193.25" y1="178.19" x2="156.81" y2="116.22"/><line class="cls-5" x1="191.37" y1="179.06" x2="178.68" y2="108.85"/><line class="cls-5" x1="189.57" y1="179.7" x2="142.92" y2="124.99"/><line class="cls-5" x1="187.87" y1="180.88" x2="163.18" y2="113.94"/><line class="cls-5" x1="186.2" y1="181.82" x2="130.76" y2="136.05"/><line class="cls-5" x1="184.73" y1="183.27" x2="148.79" y2="121.64"/><line class="cls-5" x1="183.25" y1="184.49" x2="120.7" y2="149.04"/><line class="cls-5" x1="182.06" y1="186.18" x2="135.96" y2="131.72"/><line class="cls-5" x1="180.81" y1="187.63" x2="113.06" y2="163.58"/><line class="cls-5" x1="179.93" y1="189.5" x2="125.08" y2="143.88"/><line class="cls-5" x1="178.96" y1="191.15" x2="108.06" y2="179.24"/><line class="cls-5" x1="178.42" y1="193.15" x2="116.47" y2="157.74"/><line class="cls-5" x1="177.74" y1="194.94" x2="105.85" y2="195.52"/><line class="cls-5" x1="177.55" y1="197" x2="110.4" y2="172.89"/><line class="cls-5" x1="177.2" y1="198.88" x2="106.5" y2="211.93"/><line class="cls-5" x1="177.37" y1="200.94" x2="107.05" y2="188.86"/><line class="cls-5" x1="177.35" y1="202.86" x2="109.99" y2="227.99"/><line class="cls-5" x1="177.88" y1="204.86" x2="106.53" y2="205.17"/><line class="cls-5" x1="178.19" y1="206.75" x2="116.22" y2="243.19"/><line class="cls-5" x1="179.06" y1="208.63" x2="108.85" y2="221.32"/><line class="cls-5" x1="179.7" y1="210.43" x2="124.99" y2="257.08"/><line class="cls-5" x1="180.88" y1="212.13" x2="113.94" y2="236.82"/><line class="cls-5" x1="181.82" y1="213.8" x2="136.05" y2="269.24"/><line class="cls-5" x1="183.27" y1="215.27" x2="121.64" y2="251.21"/><line class="cls-5" x1="184.49" y1="216.75" x2="149.04" y2="279.3"/><line class="cls-5" x1="186.18" y1="217.94" x2="131.72" y2="264.04"/><line class="cls-5" x1="187.63" y1="219.19" x2="163.58" y2="286.94"/><line class="cls-5" x1="189.5" y1="220.07" x2="143.88" y2="274.92"/><line class="cls-5" x1="191.15" y1="221.04" x2="179.24" y2="291.94"/><line class="cls-5" x1="193.15" y1="221.58" x2="157.74" y2="283.53"/><line class="cls-5" x1="194.94" y1="222.26" x2="195.52" y2="294.15"/><line class="cls-5" x1="197" y1="222.45" x2="172.89" y2="289.6"/><line class="cls-5" x1="198.88" y1="222.8" x2="211.93" y2="293.5"/><line class="cls-5" x1="200.94" y1="222.63" x2="188.86" y2="292.95"/><line class="cls-5" x1="202.86" y1="222.65" x2="227.99" y2="290.01"/><line class="cls-5" x1="204.86" y1="222.12" x2="205.17" y2="293.47"/><line class="cls-5" x1="206.75" y1="221.81" x2="243.19" y2="283.78"/><line class="cls-5" x1="208.63" y1="220.94" x2="221.32" y2="291.15"/><line class="cls-5" x1="210.43" y1="220.3" x2="257.08" y2="275.01"/><line class="cls-5" x1="212.13" y1="219.12" x2="236.82" y2="286.06"/><line class="cls-5" x1="213.8" y1="218.18" x2="269.24" y2="263.95"/><line class="cls-5" x1="215.27" y1="216.73" x2="251.21" y2="278.36"/><line class="cls-5" x1="216.75" y1="215.51" x2="279.3" y2="250.96"/><line class="cls-5" x1="217.94" y1="213.82" x2="264.04" y2="268.28"/><line class="cls-5" x1="219.19" y1="212.37" x2="286.94" y2="236.42"/><line class="cls-5" x1="220.07" y1="210.5" x2="274.92" y2="256.12"/><line class="cls-5" x1="221.04" y1="208.85" x2="291.94" y2="220.76"/><line class="cls-5" x1="221.58" y1="206.85" x2="283.53" y2="242.26"/><line class="cls-5" x1="222.26" y1="205.06" x2="294.15" y2="204.48"/><line class="cls-5" x1="222.45" y1="203" x2="289.6" y2="227.11"/><line class="cls-5" x1="222.8" y1="201.12" x2="293.5" y2="188.07"/><line class="cls-5" x1="222.63" y1="199.06" x2="292.95" y2="211.14"/><line class="cls-5" x1="222.65" y1="197.14" x2="290.01" y2="172.01"/><line class="cls-5" x1="222.12" y1="195.14" x2="293.47" y2="194.83"/><line class="cls-5" x1="221.81" y1="193.25" x2="283.78" y2="156.81"/><line class="cls-5" x1="220.94" y1="191.37" x2="291.15" y2="178.68"/><line class="cls-5" x1="220.3" y1="189.57" x2="275.01" y2="142.92"/><line class="cls-5" x1="219.12" y1="187.87" x2="286.06" y2="163.18"/><line class="cls-5" x1="218.18" y1="186.2" x2="263.95" y2="130.76"/><line class="cls-5" x1="216.73" y1="184.73" x2="278.36" y2="148.79"/><line class="cls-5" x1="215.51" y1="183.25" x2="250.96" y2="120.7"/><line class="cls-5" x1="213.82" y1="182.06" x2="268.28" y2="135.96"/><line class="cls-5" x1="212.37" y1="180.81" x2="236.42" y2="113.06"/><line class="cls-5" x1="210.5" y1="179.93" x2="256.12" y2="125.08"/><line class="cls-5" x1="208.85" y1="178.96" x2="220.76" y2="108.06"/><line class="cls-5" x1="206.85" y1="178.42" x2="242.26" y2="116.47"/><line class="cls-5" x1="205.06" y1="177.74" x2="204.48" y2="105.85"/><line class="cls-5" x1="203" y1="177.55" x2="227.11" y2="110.4"/><circle class="cls-1" cx="200" cy="200" r="6.25"/></g></svg>